<?xml version='1.0' encoding='utf-8'?>
<svg tag="svg" version="1.1" viewBox="0 0 140.0 140.0"><g id="semantic_class_32" class="semantic_wall" stroke="#FF0000" fill="#FF000040" stroke-width="3"><path d="M 2.169173999999998,33.29877550000003 L 2.169173999999998,40.79877550000003" instanceId="-1" semanticId="33" tag="path" /><path d="M 2.169173999999998,33.29877550000003 L 4.169173999999998,33.29877550000003" instanceId="-1" semanticId="33" tag="path" /><path d="M 4.169173999999998,38.79877550000003 L 4.169173999999998,33.29877550000003" instanceId="-1" semanticId="33" tag="path" /><path d="M 2.169173999999998,14.798775500000033 L 2.169173999999998,22.298775500000033" instanceId="-1" semanticId="33" tag="path" /><path d="M 4.169173999999998,22.298775500000033 L 2.169173999999998,22.298775500000033" instanceId="-1" semanticId="33" tag="path" /><path d="M 4.169173999999998,22.298775500000033 L 4.169173999999998,16.798775500000033" instanceId="-1" semanticId="33" tag="path" /><path d="M 10.169173999999998,14.798775500000033 L 2.169173999999998,14.798775500000033" instanceId="-1" semanticId="33" tag="path" /><path d="M 4.169173999999998,16.798775500000033 L 11.169173999999998,16.798775500000033" instanceId="-1" semanticId="33" tag="path" /><path d="M 10.169173999999998,0.0 L 10.169173999999998,14.798775500000033" instanceId="-1" semanticId="33" tag="path" /><path d="M 12.669173999999998,14.298775500000033 L 12.669173999999998,0.0" instanceId="-1" semanticId="33" tag="path" /><path d="M 25.169173999999998,14.298775500000033 L 12.669173999999998,14.298775500000033" instanceId="-1" semanticId="33" tag="path" /><path d="M 11.169173999999998,16.798775500000033 L 24.169173999999998,16.798775500000033" instanceId="-1" semanticId="33" tag="path" /><path d="M 78.169174,39.29877550000003 L 78.169174,53.79877550000003" instanceId="-1" semanticId="33" tag="path" /><path d="M 80.669174,53.29877550000003 L 80.669174,40.79877550000003" instanceId="-1" semanticId="33" tag="path" /><path d="M 89.169174,53.29877550000003 L 80.669174,53.29877550000003" instanceId="-1" semanticId="33" tag="path" /><path d="M 79.169174,55.79877550000003 L 89.169174,55.79877550000003" instanceId="-1" semanticId="33" tag="path" /><path d="M 54.169174,84.79877550000003 L 49.169174,84.79877550000003" instanceId="-1" semanticId="33" tag="path" /><path d="M 54.169174,86.79877550000003 L 54.169174,84.79877550000003" instanceId="-1" semanticId="33" tag="path" /><path d="M 51.169174,86.79877550000003 L 54.169174,86.79877550000003" instanceId="-1" semanticId="33" tag="path" /><path d="M 88.169174,84.79877550000003 L 88.169174,125.29877550000003" instanceId="-1" semanticId="33" tag="path" /><path d="M 90.169174,84.79877550000003 L 88.169174,84.79877550000003" instanceId="-1" semanticId="33" tag="path" /><path d="M 90.169174,125.29877550000003 L 90.169174,84.79877550000003" instanceId="-1" semanticId="33" tag="path" /><path d="M 15.169173999999998,88.79877550000003 L 15.169173999999998,117.29877550000003" instanceId="-1" semanticId="33" tag="path" /><path d="M 17.169173999999998,88.79877550000003 L 15.169173999999998,88.79877550000003" instanceId="-1" semanticId="33" tag="path" /><path d="M 17.169173999999998,118.79877550000003 L 17.169173999999998,88.79877550000003" instanceId="-1" semanticId="33" tag="path" /><path d="M 15.169173999999998,117.29877550000003 L 0.0,117.29877550000003" instanceId="-1" semanticId="33" tag="path" /><path d="M 0.0,119.79877550000003 L 14.669173999999998,119.79877550000003" instanceId="-1" semanticId="33" tag="path" /><path d="M 14.669173999999998,119.79877550000003 L 14.669173999999998,127.79877550000003" instanceId="-1" semanticId="33" tag="path" /><path d="M 17.169173999999998,125.29877550000003 L 17.169173999999998,118.79877550000003" instanceId="-1" semanticId="33" tag="path" /><path d="M 49.169174,125.29877550000003 L 17.169173999999998,125.29877550000003" instanceId="-1" semanticId="33" tag="path" /><path d="M 14.669173999999998,127.79877550000003 L 50.169174,127.79877550000003" instanceId="-1" semanticId="33" tag="path" /><path d="M 49.169174,84.79877550000003 L 49.169174,125.29877550000003" instanceId="-1" semanticId="33" tag="path" /><path d="M 51.169174,125.29877550000003 L 51.169174,86.79877550000003" instanceId="-1" semanticId="33" tag="path" /><path d="M 88.169174,125.29877550000003 L 51.169174,125.29877550000003" instanceId="-1" semanticId="33" tag="path" /><path d="M 50.169174,127.79877550000003 L 89.169174,127.79877550000003" instanceId="-1" semanticId="33" tag="path" /><path d="M 98.41117399999996,125.29877550000003 L 90.169174,125.29877550000003" instanceId="-1" semanticId="33" tag="path" /><path d="M 89.169174,127.79877550000003 L 98.41117399999996,127.79877550000003" instanceId="-1" semanticId="33" tag="path" /><path d="M 60.11417400000005,14.298775500000033 L 25.169173999999998,14.298775500000033" instanceId="-1" semanticId="33" tag="path" /><path d="M 26.169173999999998,16.798775500000033 L 60.11417400000005,16.798775500000033" instanceId="-1" semanticId="33" tag="path" /><path d="M 24.169173999999998,55.79877550000003 L 26.169173999999998,55.79877550000003" instanceId="-1" semanticId="33" tag="path" /><path d="M 24.169173999999998,40.79877550000003 L 24.169173999999998,55.79877550000003" instanceId="-1" semanticId="33" tag="path" /><path d="M 26.169173999999998,55.79877550000003 L 26.169173999999998,39.79877550000003" instanceId="-1" semanticId="33" tag="path" /><path d="M 140.0,14.298775500000033 L 97.669174,14.298775500000033" instanceId="-1" semanticId="33" tag="path" /><path d="M 100.169174,16.798775500000033 L 140.0,16.798775500000033" instanceId="-1" semanticId="33" tag="path" /><path d="M 112.669174,53.79877550000003 L 100.169174,53.79877550000003" instanceId="-1" semanticId="33" tag="path" /><path d="M 99.169174,55.79877550000003 L 112.669174,55.79877550000003" instanceId="-1" semanticId="33" tag="path" /><path d="M 97.669174,40.79877550000003 L 97.669174,53.29877550000003" instanceId="-1" semanticId="33" tag="path" /><path d="M 100.169174,53.79877550000003 L 100.169174,39.29877550000003" instanceId="-1" semanticId="33" tag="path" /><path d="M 97.669174,53.29877550000003 L 89.169174,53.29877550000003" instanceId="-1" semanticId="33" tag="path" /><path d="M 89.169174,55.79877550000003 L 99.169174,55.79877550000003" instanceId="-1" semanticId="33" tag="path" /><path d="M 127.169174,86.79877550000003 L 127.169174,125.29877550000003" instanceId="-1" semanticId="33" tag="path" /><path d="M 129.169174,125.29877550000003 L 129.169174,84.79877550000003" instanceId="-1" semanticId="33" tag="path" /><path d="M 140.0,125.29877550000003 L 129.169174,125.29877550000003" instanceId="-1" semanticId="33" tag="path" /><path d="M 128.169174,127.79877550000003 L 140.0,127.79877550000003" instanceId="-1" semanticId="33" tag="path" /><path d="M 24.169173999999998,38.79877550000003 L 4.169173999999998,38.79877550000003" instanceId="-1" semanticId="33" tag="path" /><path d="M 2.169173999999998,40.79877550000003 L 24.169173999999998,40.79877550000003" instanceId="-1" semanticId="33" tag="path" /><path d="M 24.169173999999998,16.798775500000033 L 24.169173999999998,38.79877550000003" instanceId="-1" semanticId="33" tag="path" /><path d="M 26.169173999999998,39.79877550000003 L 26.169173999999998,16.798775500000033" instanceId="-1" semanticId="33" tag="path" /><path d="M 124.169174,84.79877550000003 L 124.169174,86.79877550000003" instanceId="-1" semanticId="33" tag="path" /><path d="M 129.169174,84.79877550000003 L 124.169174,84.79877550000003" instanceId="-1" semanticId="33" tag="path" /><path d="M 124.169174,86.79877550000003 L 127.169174,86.79877550000003" instanceId="-1" semanticId="33" tag="path" /><path d="M 57.169174,53.79877550000003 L 57.169174,55.79877550000003" instanceId="-1" semanticId="33" tag="path" /><path d="M 65.669174,53.79877550000003 L 57.169174,53.79877550000003" instanceId="-1" semanticId="33" tag="path" /><path d="M 57.169174,55.79877550000003 L 65.669174,55.79877550000003" instanceId="-1" semanticId="33" tag="path" /><path d="M 4.169173999999998,67.38477550000005 L 0.0,71.55394950000004" instanceId="-1" semanticId="33" tag="path" /><path d="M 5.583173999999985,68.79877550000003 L 4.169173999999998,67.38477550000005" instanceId="-1" semanticId="33" tag="path" /><path d="M 0.0,74.38194950000002 L 5.583173999999985,68.79877550000003" instanceId="-1" semanticId="33" tag="path" /><path d="M 121.169174,53.79877550000003 L 112.669174,53.79877550000003" instanceId="-1" semanticId="33" tag="path" /><path d="M 121.169174,55.79877550000003 L 121.169174,53.79877550000003" instanceId="-1" semanticId="33" tag="path" /><path d="M 112.669174,55.79877550000003 L 121.169174,55.79877550000003" instanceId="-1" semanticId="33" tag="path" /><path d="M 78.169174,53.79877550000003 L 65.669174,53.79877550000003" instanceId="-1" semanticId="33" tag="path" /><path d="M 65.669174,55.79877550000003 L 79.169174,55.79877550000003" instanceId="-1" semanticId="33" tag="path" /><path d="M 80.669174,14.298775500000033 L 60.11417400000005,14.298775500000033" instanceId="-1" semanticId="33" tag="path" /><path d="M 60.11417400000005,16.798775500000033 L 78.169174,16.798775500000033" instanceId="-1" semanticId="33" tag="path" /><path d="M 127.169174,125.29877550000003 L 98.41117399999996,125.29877550000003" instanceId="-1" semanticId="33" tag="path" /><path d="M 98.41117399999996,127.79877550000003 L 128.169174,127.79877550000003" instanceId="-1" semanticId="33" tag="path" /><path d="M 78.169174,16.798775500000033 L 78.169174,39.29877550000003" instanceId="-1" semanticId="33" tag="path" /><path d="M 80.669174,38.29877550000003 L 80.669174,14.298775500000033" instanceId="-1" semanticId="33" tag="path" /><path d="M 97.669174,14.298775500000033 L 97.669174,38.29877550000003" instanceId="-1" semanticId="33" tag="path" /><path d="M 100.169174,39.29877550000003 L 100.169174,16.798775500000033" instanceId="-1" semanticId="33" tag="path" /><path d="M 97.669174,38.29877550000003 L 80.669174,38.29877550000003" instanceId="-1" semanticId="33" tag="path" /><path d="M 80.669174,40.79877550000003 L 97.669174,40.79877550000003" instanceId="-1" semanticId="33" tag="path" /><path d="M 2.169173999999998,38.79877550000003 L 0.0,38.79877550000003" instanceId="-1" semanticId="33" tag="path" /><path d="M 0.0,40.79877550000003 L 2.169173999999998,40.79877550000003" instanceId="-1" semanticId="33" tag="path" /><path d="M 15.169173999999998,70.79877550000003 L 15.169173999999998,88.79877550000003" instanceId="-1" semanticId="33" tag="path" /><path d="M 17.169173999999998,88.79877550000003 L 17.169173999999998,70.79877550000003" instanceId="-1" semanticId="33" tag="path" /><path d="M 57.169174,53.79877550000003 L 26.169173999999998,53.79877550000003" instanceId="-1" semanticId="33" tag="path" /><path d="M 26.169173999999998,55.79877550000003 L 57.169174,55.79877550000003" instanceId="-1" semanticId="33" tag="path" /><path d="M 88.169174,55.79877550000003 L 88.169174,84.79877550000003" instanceId="-1" semanticId="33" tag="path" /><path d="M 90.169174,84.79877550000003 L 90.169174,55.79877550000003" instanceId="-1" semanticId="33" tag="path" /><path d="M 112.66817400000002,84.79877550000003 L 90.169174,84.79877550000003" instanceId="-1" semanticId="33" tag="path" /><path d="M 90.169174,86.79877550000003 L 112.669174,86.79877550000003" instanceId="-1" semanticId="33" tag="path" /><path d="M 140.0,53.79877550000003 L 121.169174,53.79877550000003" instanceId="-1" semanticId="33" tag="path" /><path d="M 121.169174,55.79877550000003 L 140.0,55.79877550000003" instanceId="-1" semanticId="33" tag="path" /><path d="M 65.66817400000002,84.79877550000003 L 54.169174,84.79877550000003" instanceId="-1" semanticId="33" tag="path" /><path d="M 54.169174,86.79877550000003 L 65.669174,86.79877550000003" instanceId="-1" semanticId="33" tag="path" /><path d="M 64.669174,68.79877550000003 L 16.169173999999998,68.79877550000003" instanceId="-1" semanticId="33" tag="path" /><path d="M 17.169173999999998,70.79877550000003 L 64.669174,70.79877550000003" instanceId="-1" semanticId="33" tag="path" /><path d="M 16.169173999999998,68.79877550000003 L 5.583173999999985,68.79877550000003" instanceId="-1" semanticId="33" tag="path" /><path d="M 3.5831739999999854,70.79877550000003 L 15.169173999999998,70.79877550000003" instanceId="-1" semanticId="33" tag="path" /><path d="M 124.169174,84.79877550000003 L 112.669174,84.79877550000003" instanceId="-1" semanticId="33" tag="path" /><path d="M 112.669174,86.79877550000003 L 124.169174,86.79877550000003" instanceId="-1" semanticId="33" tag="path" /><path d="M 88.169174,84.79877550000003 L 65.669174,84.79877550000003" instanceId="-1" semanticId="33" tag="path" /><path d="M 65.669174,86.79877550000003 L 88.169174,86.79877550000003" instanceId="-1" semanticId="33" tag="path" /><path d="M 64.669174,70.79877550000003 L 64.669174,84.79877550000003" instanceId="-1" semanticId="33" tag="path" /><path d="M 66.669174,84.79877550000003 L 66.669174,69.79877550000003" instanceId="-1" semanticId="33" tag="path" /><path d="M 111.669174,69.79877550000003 L 111.669174,84.79877550000003" instanceId="-1" semanticId="33" tag="path" /><path d="M 113.669174,84.79877550000003 L 113.669174,70.79877550000003" instanceId="-1" semanticId="33" tag="path" /><path d="M 64.669174,55.79877550000003 L 64.669174,68.79877550000003" instanceId="-1" semanticId="33" tag="path" /><path d="M 66.669174,69.79877550000003 L 66.669174,55.79877550000003" instanceId="-1" semanticId="33" tag="path" /><path d="M 111.669174,55.79877550000003 L 111.669174,69.79877550000003" instanceId="-1" semanticId="33" tag="path" /><path d="M 113.669174,68.79877550000003 L 113.669174,55.79877550000003" instanceId="-1" semanticId="33" tag="path" /><path d="M 140.0,68.79877550000003 L 113.669174,68.79877550000003" instanceId="-1" semanticId="33" tag="path" /><path d="M 113.669174,70.79877550000003 L 140.0,70.79877550000003" instanceId="-1" semanticId="33" tag="path" /><path d="M 2.169173999999998,0.0 L 2.169173999999998,14.798775500000033" instanceId="-1" semanticId="33" tag="path" /><path d="M 4.169173999999998,14.798775500000033 L 4.169173999999998,0.0" instanceId="-1" semanticId="33" tag="path" /><path d="M 96.16117399999996,130.29877550000003 L 96.16117399999996,140.0" instanceId="-1" semanticId="33" tag="path" /><path d="M 100.66117399999996,140.0 L 100.66117399999996,130.29877550000003" instanceId="-1" semanticId="33" tag="path" /><path d="M 97.669174,14.298775500000033 L 80.669174,14.298775500000033" instanceId="-1" semanticId="33" tag="path" /><path d="M 80.669174,16.798775500000033 L 97.669174,16.798775500000033" instanceId="-1" semanticId="33" tag="path" /><path d="M 15.16117399999996,130.29877550000003 L 15.16117399999996,140.0" instanceId="-1" semanticId="33" tag="path" /><path d="M 19.66117399999996,140.0 L 19.66117399999996,130.29877550000003" instanceId="-1" semanticId="33" tag="path" /><path d="M 59.11417400000005,0.0 L 59.11417400000005,14.298775500000033" instanceId="-1" semanticId="33" tag="path" /><path d="M 62.61417400000005,14.298775500000033 L 62.61417400000005,0.0" instanceId="-1" semanticId="33" tag="path" /><path d="M 100.36517400000002,0.0 L 100.36517400000002,14.298775500000033" instanceId="-1" semanticId="33" tag="path" /><path d="M 103.86517400000002,14.298775500000033 L 103.86517400000002,0.0" instanceId="-1" semanticId="33" tag="path" /></g></svg>