<?xml version='1.0' encoding='utf-8'?>
<svg tag="svg" version="1.1" viewBox="0 0 140.0 140.0"><g id="instance_0" stroke="#FF0000" fill="#FF000040" stroke-width="4"><path d="M 130.631174,79.7967755000002 L 126.41117399999999,79.7967755000002" instanceId="-1" semanticId="33" tag="path" /><path d="M 125.41117399999999,82.2967755000002 L 129.631174,82.2967755000002" instanceId="-1" semanticId="33" tag="path" /><path d="M 129.631174,82.2967755000002 L 129.63017399999998,96.7967755000002" instanceId="-1" semanticId="33" tag="path" /><path d="M 131.63017399999998,96.7967755000002 L 131.631174,82.2967755000002" instanceId="-1" semanticId="33" tag="path" /><path d="M 140.0,79.7967755000002 L 130.631174,79.7967755000002" instanceId="-1" semanticId="33" tag="path" /><path d="M 131.631174,82.2967755000002 L 140.0,82.2967755000002" instanceId="-1" semanticId="33" tag="path" /><path d="M 99.13117399999999,117.33677550000016 L 134.173174,82.2967755000002" tag="path" /><path d="M 111.82656934692588,140.0 L 140.0,111.8246904919306" tag="path" /><path d="M 140.0,82.2967755000002 L 99.13117399999999,82.2967755000002" instanceId="-1" semanticId="33" tag="path" /><path d="M 140.0,82.2967755000002 L 99.13117399999999,82.2967755000002" instanceId="-1" semanticId="33" tag="path" /></g><g id="instance_1" stroke="#00FF00" fill="#00FF0040" stroke-width="4"><path d="M 117.13117399999999,117.7967755000002 L 103.63117399999999,117.7967755000002" instanceId="-1" semanticId="33" tag="path" /><path d="M 117.13117399999999,119.7967755000002 L 117.13117399999999,117.7967755000002" instanceId="-1" semanticId="33" tag="path" /><path d="M 103.63117399999999,119.7967755000002 L 117.13117399999999,119.7967755000002" instanceId="-1" semanticId="33" tag="path" /><path d="M 122.41117399999999,57.52677550000021 L 122.41117399999999,79.7967755000002" instanceId="-1" semanticId="33" tag="path" /><path d="M 111.82656934692588,140.0 L 140.0,111.8246904919306" tag="path" /><path d="M 140.0,79.7967755000002 L 96.63117399999999,79.7967755000002" instanceId="-1" semanticId="33" tag="path" /><path d="M 140.0,82.2967755000002 L 99.13117399999999,82.2967755000002" instanceId="-1" semanticId="33" tag="path" /><path d="M 140.0,82.2967755000002 L 99.13117399999999,82.2967755000002" instanceId="-1" semanticId="33" tag="path" /><path d="M 129.631174,117.7967755000002 L 116.13117399999999,117.7967755000002" instanceId="-1" semanticId="33" tag="path" /><path d="M 117.13117399999999,119.7967755000002 L 130.631174,119.7967755000002" instanceId="-1" semanticId="33" tag="path" /><path d="M 115.13117399999999,119.7967755000002 L 115.13117399999999,132.7967755000002" instanceId="-1" semanticId="33" tag="path" /><path d="M 117.13117399999999,131.7967755000002 L 117.13117399999999,119.7967755000002" instanceId="-1" semanticId="33" tag="path" /><path d="M 102.63117399999999,119.7967755000002 L 102.63117399999999,140.0" instanceId="-1" semanticId="33" tag="path" /><path d="M 104.63117399999999,140.0 L 104.63117399999999,119.7967755000002" instanceId="-1" semanticId="33" tag="path" /><path d="M 122.41117399999999,57.52677550000021 L 122.41117399999999,79.7967755000002" tag="path" /></g><g id="instance_2" stroke="#0000FF" fill="#0000FF40" stroke-width="4"><path d="M 122.41117399999999,0.0 L 122.41117399999999,51.52677550000021" instanceId="-1" semanticId="33" tag="path" /><path d="M 126.41117399999999,51.52677550000021 L 126.41117399999999,0.0" instanceId="-1" semanticId="33" tag="path" /><path d="M 122.41117399999999,0.0 L 122.41117399999999,51.52677550000021" tag="path" /><path d="M 126.41117399999999,51.52677550000021 L 126.41117399999999,0.0" tag="path" /></g></svg>