<?xml version='1.0' encoding='utf-8'?>
<svg tag="svg" version="1.1" viewBox="0 0 140.0 140.0"><g id="instance_0" stroke="#FF0000" fill="#FF000040" stroke-width="4"><path d="M 88.169174,84.79877550000003 L 88.169174,125.29877550000003" instanceId="-1" semanticId="33" tag="path" /><path d="M 90.169174,125.29877550000003 L 90.169174,84.79877550000003" instanceId="-1" semanticId="33" tag="path" /><path d="M 17.169173999999998,118.79877550000003 L 17.169173999999998,88.79877550000003" instanceId="-1" semanticId="33" tag="path" /><path d="M 49.169174,125.29877550000003 L 17.169173999999998,125.29877550000003" instanceId="-1" semanticId="33" tag="path" /><path d="M 49.169174,84.79877550000003 L 49.169174,125.29877550000003" instanceId="-1" semanticId="33" tag="path" /><path d="M 51.169174,125.29877550000003 L 51.169174,86.79877550000003" instanceId="-1" semanticId="33" tag="path" /><path d="M 88.169174,125.29877550000003 L 51.169174,125.29877550000003" instanceId="-1" semanticId="33" tag="path" /><path d="M 50.169174,127.79877550000003 L 89.169174,127.79877550000003" instanceId="-1" semanticId="33" tag="path" /><path d="M 140.0,14.298775500000033 L 97.669174,14.298775500000033" instanceId="-1" semanticId="33" tag="path" /><path d="M 100.169174,16.798775500000033 L 140.0,16.798775500000033" instanceId="-1" semanticId="33" tag="path" /><path d="M 127.169174,86.79877550000003 L 127.169174,125.29877550000003" instanceId="-1" semanticId="33" tag="path" /><path d="M 129.169174,125.29877550000003 L 129.169174,84.79877550000003" instanceId="-1" semanticId="33" tag="path" /><path d="M 127.169174,125.29877550000003 L 98.41117399999996,125.29877550000003" instanceId="-1" semanticId="33" tag="path" /><path d="M 140.0,14.298775500000033 L 97.669174,14.298775500000033" tag="path" /><path d="M 100.169174,16.798775500000033 L 140.0,16.798775500000033" tag="path" /><path d="M 140.0,16.798775500000033 L 100.169174,16.798775500000033" tag="path" /><path d="M 57.169174,53.79877550000003 L 26.169173999999998,53.79877550000003" instanceId="-1" semanticId="33" tag="path" /><path d="M 26.169173999999998,55.79877550000003 L 57.169174,55.79877550000003" instanceId="-1" semanticId="33" tag="path" /><path d="M 64.669174,68.79877550000003 L 16.169173999999998,68.79877550000003" instanceId="-1" semanticId="33" tag="path" /><path d="M 17.169173999999998,70.79877550000003 L 64.669174,70.79877550000003" instanceId="-1" semanticId="33" tag="path" /></g></svg>