<?xml version='1.0' encoding='utf-8'?>
<svg tag="svg" version="1.1" viewBox="0 0 140.0 140.0"><g id="instance_0" stroke="#FF0000" fill="#FF000040" stroke-width="4"><path d="M 130.631174,79.7967755000002 L 126.41117399999999,79.7967755000002" instanceId="-1" semanticId="33" tag="path" /><path d="M 125.41117399999999,82.2967755000002 L 129.631174,82.2967755000002" instanceId="-1" semanticId="33" tag="path" /><path d="M 99.13117399999999,82.2967755000002 L 125.41117399999999,82.2967755000002" instanceId="-1" semanticId="33" tag="path" /><path d="M 129.631174,82.2967755000002 L 129.63017399999998,96.7967755000002" instanceId="-1" semanticId="33" tag="path" /><path d="M 131.63017399999998,96.7967755000002 L 131.631174,82.2967755000002" instanceId="-1" semanticId="33" tag="path" /><path d="M 140.0,79.7967755000002 L 130.631174,79.7967755000002" instanceId="-1" semanticId="33" tag="path" /><path d="M 131.631174,82.2967755000002 L 140.0,82.2967755000002" instanceId="-1" semanticId="33" tag="path" /><path d="M 122.41117399999999,57.52677550000021 L 122.41117399999999,79.7967755000002" instanceId="-1" semanticId="33" tag="path" /><path d="M 126.41117399999999,79.7967755000002 L 126.41117399999999,57.52677550000021" instanceId="-1" semanticId="33" tag="path" /><path d="M 99.13117399999999,108.50677550000023 L 125.33417399999999,82.2967755000002" tag="path" /><path d="M 99.13117399999999,117.33677550000016 L 134.173174,82.2967755000002" tag="path" /><path d="M 111.82656934692588,140.0 L 140.0,111.8246904919306" tag="path" /><path d="M 140.0,79.7967755000002 L 96.63117399999999,79.7967755000002" instanceId="-1" semanticId="33" tag="path" /><path d="M 140.0,82.2967755000002 L 99.13117399999999,82.2967755000002" instanceId="-1" semanticId="33" tag="path" /><path d="M 140.0,82.2967755000002 L 99.13117399999999,82.2967755000002" instanceId="-1" semanticId="33" tag="path" /><path d="M 129.63017399999998,96.7967755000002 L 129.631174,117.7967755000002" instanceId="-1" semanticId="33" tag="path" /><path d="M 131.631174,117.7967755000002 L 131.63017399999998,96.7967755000002" instanceId="-1" semanticId="33" tag="path" /><path d="M 140.0,52.52677550000021 L 128.411174,52.52677550000021" tag="path" /><path d="M 128.411174,57.02677550000021 L 140.0,57.02677550000021" tag="path" /><path d="M 125.413174,78.38677550000011 L 126.11317399999999,78.11677550000013" tag="path" /><path d="M 125.413174,78.38677550000011 L 125.91117399999999,78.71677550000004" tag="path" /><path d="M 125.91117399999999,78.72677550000003 L 126.11417399999999,78.11677550000013" tag="path" /><path d="M 122.41117399999999,77.32677550000017 L 126.41117399999999,73.32677550000017" tag="path" /><path d="M 122.41117399999999,57.52677550000021 L 122.41117399999999,79.7967755000002" tag="path" /><path d="M 122.41117399999999,79.7967755000002 L 126.41117399999999,79.7967755000002" tag="path" /><path d="M 126.41117399999999,79.7967755000002 L 126.41117399999999,57.52677550000021" tag="path" /></g><g id="instance_1" stroke="#00FF00" fill="#00FF0040" stroke-width="4"><path d="M 140.0,131.7967755000002 L 127.63017399999998,131.7967755000002" instanceId="-1" semanticId="33" tag="path" /><path d="M 129.63017399999998,133.7967755000002 L 140.0,133.7967755000002" instanceId="-1" semanticId="33" tag="path" /><path d="M 127.63017399999998,131.7967755000002 L 127.63017399999998,140.0" instanceId="-1" semanticId="33" tag="path" /><path d="M 129.63017399999998,140.0 L 129.63017399999998,133.7967755000002" instanceId="-1" semanticId="33" tag="path" /><path d="M 117.13117399999999,117.7967755000002 L 103.63117399999999,117.7967755000002" instanceId="-1" semanticId="33" tag="path" /><path d="M 103.63117399999999,119.7967755000002 L 117.13117399999999,119.7967755000002" instanceId="-1" semanticId="33" tag="path" /><path d="M 111.82656934692588,140.0 L 140.0,111.8246904919306" tag="path" /><path d="M 120.66659522326933,140.0 L 140.0,120.66570873582032" tag="path" /><path d="M 129.50595237388129,140.0 L 140.0,129.5054062355714" tag="path" /><path d="M 138.3409495000002,140.0 L 140.0,138.34094950000008" tag="path" /><path d="M 129.63017399999998,96.7967755000002 L 129.631174,117.7967755000002" instanceId="-1" semanticId="33" tag="path" /><path d="M 131.631174,117.7967755000002 L 131.63017399999998,96.7967755000002" instanceId="-1" semanticId="33" tag="path" /><path d="M 140.0,117.7967755000002 L 131.631174,117.7967755000002" instanceId="-1" semanticId="33" tag="path" /><path d="M 130.631174,119.7967755000002 L 140.0,119.7967755000002" instanceId="-1" semanticId="33" tag="path" /><path d="M 129.631174,117.7967755000002 L 116.13117399999999,117.7967755000002" instanceId="-1" semanticId="33" tag="path" /><path d="M 117.13117399999999,119.7967755000002 L 130.631174,119.7967755000002" instanceId="-1" semanticId="33" tag="path" /><path d="M 115.13117399999999,132.7967755000002 L 115.13117399999999,140.0" instanceId="-1" semanticId="33" tag="path" /><path d="M 117.13117399999999,140.0 L 117.13117399999999,133.7967755000002" instanceId="-1" semanticId="33" tag="path" /><path d="M 115.13117399999999,119.7967755000002 L 115.13117399999999,132.7967755000002" instanceId="-1" semanticId="33" tag="path" /><path d="M 117.13117399999999,131.7967755000002 L 117.13117399999999,119.7967755000002" instanceId="-1" semanticId="33" tag="path" /><path d="M 127.63017399999998,131.7967755000002 L 117.13117399999999,131.7967755000002" instanceId="-1" semanticId="33" tag="path" /><path d="M 117.13117399999999,133.7967755000002 L 127.63017399999998,133.7967755000002" instanceId="-1" semanticId="33" tag="path" /></g><g id="instance_2" stroke="#0000FF" fill="#0000FF40" stroke-width="4"><path d="M 122.41117399999999,79.7967755000002 L 96.63117399999999,79.7967755000002" instanceId="-1" semanticId="33" tag="path" /><path d="M 99.13117399999999,82.2967755000002 L 125.41117399999999,82.2967755000002" instanceId="-1" semanticId="33" tag="path" /><path d="M 96.63117399999999,79.7967755000002 L 96.63117399999999,117.2967755000002" instanceId="-1" semanticId="33" tag="path" /><path d="M 99.13117399999999,117.7967755000002 L 99.13117399999999,82.2967755000002" instanceId="-1" semanticId="33" tag="path" /><path d="M 99.13117399999999,99.66677550000009 L 116.49517399999999,82.2967755000002" tag="path" /><path d="M 99.13117399999999,108.50677550000023 L 125.33417399999999,82.2967755000002" tag="path" /><path d="M 99.13117399999999,117.33677550000016 L 134.173174,82.2967755000002" tag="path" /><path d="M 96.63117399999999,79.7967755000002 L 96.63117399999999,117.2967755000002" instanceId="-1" semanticId="33" tag="path" /><path d="M 140.0,79.7967755000002 L 96.63117399999999,79.7967755000002" instanceId="-1" semanticId="33" tag="path" /><path d="M 140.0,82.2967755000002 L 99.13117399999999,82.2967755000002" instanceId="-1" semanticId="33" tag="path" /><path d="M 99.13117399999999,82.2967755000002 L 99.13117399999999,117.7967755000002" instanceId="-1" semanticId="33" tag="path" /><path d="M 140.0,82.2967755000002 L 99.13117399999999,82.2967755000002" instanceId="-1" semanticId="33" tag="path" /><path d="M 99.13117399999999,82.2967755000002 L 99.13117399999999,117.7967755000002" instanceId="-1" semanticId="33" tag="path" /></g><g id="instance_3" stroke="#FF8000" fill="#FF800040" stroke-width="4"><path d="M 96.63117399999999,117.2967755000002 L 88.63117399999999,117.2967755000002" instanceId="-1" semanticId="33" tag="path" /><path d="M 97.63117399999999,119.7967755000002 L 103.63117399999999,119.7967755000002" instanceId="-1" semanticId="33" tag="path" /><path d="M 88.63117399999999,117.2967755000002 L 88.63117399999999,140.0" instanceId="-1" semanticId="33" tag="path" /><path d="M 91.13117399999999,140.0 L 91.13117399999999,119.7967755000002" instanceId="-1" semanticId="33" tag="path" /><path d="M 117.13117399999999,117.7967755000002 L 103.63117399999999,117.7967755000002" instanceId="-1" semanticId="33" tag="path" /><path d="M 117.13117399999999,119.7967755000002 L 117.13117399999999,117.7967755000002" instanceId="-1" semanticId="33" tag="path" /><path d="M 103.63117399999999,119.7967755000002 L 117.13117399999999,119.7967755000002" instanceId="-1" semanticId="33" tag="path" /><path d="M 122.41117399999999,57.52677550000021 L 122.41117399999999,79.7967755000002" instanceId="-1" semanticId="33" tag="path" /><path d="M 96.63117399999999,117.2967755000002 L 88.63117399999999,117.2967755000002" instanceId="-1" semanticId="33" tag="path" /><path d="M 88.63117399999999,117.2967755000002 L 88.63117399999999,140.0" instanceId="-1" semanticId="33" tag="path" /><path d="M 91.13117399999999,119.7967755000002 L 91.13117399999999,140.0" instanceId="-1" semanticId="33" tag="path" /><path d="M 91.13117399999999,119.7967755000002 L 91.13117399999999,140.0" instanceId="-1" semanticId="33" tag="path" /><path d="M 117.13117399999999,131.7967755000002 L 117.13117399999999,119.7967755000002" instanceId="-1" semanticId="33" tag="path" /><path d="M 102.63117399999999,119.7967755000002 L 102.63117399999999,140.0" instanceId="-1" semanticId="33" tag="path" /><path d="M 104.63117399999999,140.0 L 104.63117399999999,119.7967755000002" instanceId="-1" semanticId="33" tag="path" /><path d="M 122.41117399999999,57.52677550000021 L 122.41117399999999,79.7967755000002" tag="path" /></g><g id="instance_4" stroke="#FF00FF" fill="#FF00FF40" stroke-width="4"><path d="M 122.41117399999999,0.0 L 122.41117399999999,51.52677550000021" instanceId="-1" semanticId="33" tag="path" /><path d="M 122.41117399999999,0.0 L 122.41117399999999,51.52677550000021" tag="path" /></g></svg>